<?xml version="1.0" encoding="UTF-8" standalone="no"?>
<!-- Created with Inkscape (http://www.inkscape.org/) -->

<svg
   width="410"
   height="50"
   viewBox="0 0 108.47917 13.229167"
   version="1.1"
   id="svg1"
   xml:space="preserve"
   inkscape:export-filename="logo-black.png"
   inkscape:export-xdpi="96"
   inkscape:export-ydpi="96"
   inkscape:version="1.4.2 (f4327f4, 2025-05-13)"
   sodipodi:docname="logo.black.svg"
   xmlns:inkscape="http://www.inkscape.org/namespaces/inkscape"
   xmlns:sodipodi="http://sodipodi.sourceforge.net/DTD/sodipodi-0.dtd"
   xmlns="http://www.w3.org/2000/svg"
   xmlns:svg="http://www.w3.org/2000/svg"><sodipodi:namedview
     id="namedview1"
     pagecolor="#ffffff"
     bordercolor="#000000"
     borderopacity="0.25"
     inkscape:showpageshadow="2"
     inkscape:pageopacity="0.0"
     inkscape:pagecheckerboard="0"
     inkscape:deskcolor="#d1d1d1"
     inkscape:document-units="mm"
     inkscape:zoom="1.9477379"
     inkscape:cx="243.35923"
     inkscape:cy="61.353224"
     inkscape:window-width="1920"
     inkscape:window-height="1046"
     inkscape:window-x="-11"
     inkscape:window-y="-11"
     inkscape:window-maximized="1"
     inkscape:current-layer="layer1" /><defs
     id="defs1"><linearGradient
       gradientUnits="userSpaceOnUse"
       id="paint1"
       x1="317.5"
       x2="314.00699"
       y1="-51.5"
       y2="126"
       gradientTransform="matrix(0.06483182,0,0,0.06483182,7.793483,1.7716596)"><stop
         stop-color="white"
         id="stop1" /><stop
         offset="1"
         stop-opacity="0"
         id="stop2" /></linearGradient></defs><g
     inkscape:label="Layer 1"
     inkscape:groupmode="layer"
     id="layer1"><path
       fill="url(#paint1)"
       pathLength="1"
       stroke="url(#paint1)"
       d="m 66.688022,7.9135153 h -8.573986 q -3.000755,0 -3.000755,-2.572126 V 3.1978936 a 3.1280616,3.1280616 0 0 1 0.175245,-1.0930831 q 0.549966,-1.4792191 2.82551,-1.4792191 h 12.432349 v 2.5809064 h -11.58352 q -0.333456,0 -0.40229,0.2702417 a 0.64443619,0.64443619 0 0 0 -0.01774,0.1583869 v 1.2776343 q 0,0.4286286 0.420026,0.4286286 h 8.58259 q 3.000928,0 3.000928,2.572126 v 2.1434957 a 3.1280616,3.1280616 0 0 1 -0.175243,1.09326 q -0.549967,1.479042 -2.825685,1.479042 h -12.43217 v -2.580731 h 11.574741 a 0.61721885,0.61721885 0 0 0 0.169801,-0.02125 q 0.259003,-0.07428 0.259003,-0.4075567 v -1.277454 a 0.61721885,0.61721885 0 0 0 -0.02125,-0.169627 q -0.07428,-0.259178 -0.407558,-0.259178 z M 53.398413,10.065616 v 2.563697 H 40.966062 q -3.000929,0 -3.000929,-2.572302 V 3.1978936 a 3.1280616,3.1280616 0 0 1 0.175419,-1.0930831 q 0.549966,-1.4792191 2.82551,-1.4792191 h 9.43142 q 3.000931,0 3.000931,2.5723022 v 3.0009297 a 3.1303444,3.1303444 0 0 1 -0.176122,1.0955408 q -0.513266,1.3780752 -2.52331,1.4774622 a 6.4805345,6.4805345 0 0 1 -0.301499,0.0077 h -9.002615 l 0.0085,0.857433 q 0,0.4286287 0.4202,0.4372327 z M 24.246719,3.1978936 v 9.4314194 h -3.42956 V 0.6255914 h 12.432352 q 3.000929,0 3.000929,2.5723022 V 12.629313 H 32.820705 V 3.6265222 q 0,-0.4286286 -0.420024,-0.4286286 z m 75.451365,9.4314194 -3.34387,-3.8583647 h -5.23012 V 12.629313 H 87.694359 V 0.6255914 H 100.1267 a 4.3200052,4.3200052 0 0 1 1.18755,0.1489057 q 1.33173,0.3813933 1.68537,1.7406798 a 4.4211483,4.4211483 0 0 1 0.12801,1.1113453 v 2.5723011 a 3.1988267,3.1988267 0 0 1 -0.15154,1.0263568 q -0.33942,1.0033542 -1.43794,1.3564762 a 4.0817218,4.0817218 0 0 1 -0.91417,0.172259 l 3.36108,3.8753977 z M 72.261256,0.5999546 85.979669,0.617163 v 2.5807306 h -5.13583 v 9.4314194 h -3.438161 l -0.0086,-9.4314194 -5.13582,0.00858 z m 32.581244,0.025641 h 3.42956 V 12.629316 H 104.8425 Z M 91.124094,3.2065009 v 2.9923255 h 8.15377 q 0.33365,0 0.4023,-0.2704175 a 0.64443619,0.64443619 0 0 0 0.0179,-0.1583869 V 3.6351296 q 0,-0.4286286 -0.42021,-0.4286286 z m -49.729227,2.9837213 8.145181,0.017211 q 0.343115,-0.00688 0.411597,-0.2772657 a 0.61704326,0.61704326 0 0 0 0.01721,-0.1515397 V 3.6265286 q 0,-0.3334559 -0.270419,-0.4022896 A 0.64443619,0.64443619 0 0 0 49.54005,3.206499 l -7.716551,-0.00858 q -0.42863,0 -0.42863,0.4202002 z"
       id="path1"
       style="font-size:12px;fill:#000000;fill-opacity:1;fill-rule:evenodd;stroke:#000000;stroke-width:0.0438989mm;stroke-linecap:round;stroke-opacity:1" /><path
       d="M 1.50309,1.4982293 H 15.924554 V 2.2921471 H 1.50309 Z m 0,4.7193972 H 15.924554 V 7.0115422 H 1.50309 Z m 0,4.7193935 h 14.421464 v 0.793917 H 1.50309 Z"
       id="path1-8"
       style="font-size:12px;fill:#ff4f01;fill-opacity:1;fill-rule:evenodd;stroke:#ff4f01;stroke-width:2.75789;stroke-linecap:round;stroke-dasharray:none;stroke-opacity:1"
       inkscape:export-filename="logo.png"
       inkscape:export-xdpi="96"
       inkscape:export-ydpi="96" /></g></svg>
